<?xml version="1.0" standalone="no"?>
<!DOCTYPE svg PUBLIC "-//W3C//DTD SVG 20010904//EN"
 "http://www.w3.org/TR/2001/REC-SVG-20010904/DTD/svg10.dtd">
<svg version="1.0" xmlns="http://www.w3.org/2000/svg"
 width="708.000000pt" height="708.000000pt" viewBox="0 0 708.000000 708.000000"
 preserveAspectRatio="xMidYMid meet">
<metadata>
Created by potrace 1.14, written by Peter Selinger 2001-2017
</metadata>
<g transform="translate(0.000000,708.000000) scale(0.100000,-0.100000)"
fill="#000000" stroke="none">
<path d="M3455 7019 c-66 -9 -167 -27 -225 -39 -58 -12 -116 -24 -130 -26
-161 -31 -603 -183 -680 -234 -14 -10 -62 -34 -108 -55 -182 -81 -349 -190
-447 -292 -63 -65 -138 -114 -340 -221 -282 -149 -396 -241 -549 -447 -137
-183 -248 -367 -357 -588 -172 -350 -519 -1346 -595 -1707 -19 -91 -25 -322
-12 -416 12 -83 55 -219 99 -312 23 -48 59 -127 80 -175 89 -201 318 -653 409
-807 105 -177 179 -281 269 -374 76 -79 273 -237 400 -322 58 -38 128 -85 157
-104 67 -45 214 -176 279 -249 100 -112 256 -259 327 -308 132 -91 308 -167
442 -188 17 -3 42 -7 56 -10 58 -11 251 -22 670 -40 80 -3 174 -13 210 -21 88
-21 91 -22 147 -30 26 -3 57 -9 68 -11 50 -12 350 -10 396 2 27 7 49 12 49 10
0 -10 153 50 264 104 69 34 128 61 131 61 2 0 42 17 87 39 46 21 157 70 248
109 562 239 992 463 1164 606 27 23 96 100 155 171 58 72 110 135 116 141 5 6
35 40 65 75 30 35 64 73 76 86 12 12 52 57 90 100 38 42 74 81 79 87 6 6 44
49 85 96 41 47 82 92 90 100 23 22 103 128 135 180 59 94 153 297 181 392 55
184 53 509 -6 798 -12 62 -6 229 13 320 67 334 22 605 -143 845 -136 199 -174
267 -235 422 -18 45 -65 134 -104 197 -39 64 -71 118 -71 120 0 5 -81 130
-134 208 -18 25 -74 80 -125 122 -77 63 -118 108 -226 250 -153 202 -131 179
-265 286 -58 47 -110 89 -116 95 -6 5 -30 26 -54 45 -24 19 -105 85 -180 146
-284 231 -306 243 -645 336 -161 44 -261 99 -435 239 -35 28 -84 49 -220 93
-96 32 -180 62 -186 67 -55 45 -247 57 -449 28z m336 -395 c170 -29 377 -107
462 -175 43 -34 189 -99 222 -99 8 0 17 -4 20 -10 3 -5 14 -10 25 -10 10 0 51
-22 92 -49 40 -28 111 -66 158 -85 61 -26 105 -54 155 -97 109 -95 251 -199
485 -354 210 -140 264 -184 290 -235 13 -24 105 -141 161 -205 94 -105 164
-198 191 -254 17 -35 50 -87 72 -115 94 -117 109 -139 131 -200 28 -76 59
-126 189 -304 53 -72 101 -143 106 -156 4 -13 10 -52 11 -87 3 -79 8 -97 75
-236 63 -131 71 -162 68 -263 -2 -101 -15 -290 -21 -315 -3 -11 -6 -202 -8
-425 -3 -469 7 -418 -122 -648 -174 -312 -255 -431 -538 -793 l-207 -264 -162
-123 c-169 -129 -320 -245 -386 -299 -66 -53 -152 -79 -355 -108 -85 -12 -153
-28 -225 -51 -41 -13 -86 -26 -100 -28 -14 -3 -50 -9 -80 -15 -119 -22 -214
-29 -489 -36 -215 -6 -267 -12 -566 -70 -163 -31 -291 -40 -375 -25 -112 19
-242 38 -310 44 -114 11 -243 38 -295 62 -27 12 -94 53 -147 91 -53 37 -116
81 -140 98 -24 16 -88 62 -143 100 -55 39 -177 119 -271 178 -308 192 -476
324 -560 438 -20 27 -51 87 -69 134 -18 46 -48 105 -66 132 -35 52 -129 175
-140 183 -4 3 -50 56 -102 119 -160 190 -230 309 -242 412 -3 24 -7 55 -10 69
-2 14 -7 45 -10 70 -5 44 -20 128 -65 370 -12 63 -23 131 -26 150 -17 132 -19
162 -18 220 1 57 9 167 19 265 13 132 25 243 30 275 2 14 7 50 10 80 3 30 8
62 10 70 2 8 7 29 9 45 14 80 48 147 237 461 112 186 208 347 214 356 14 23
182 322 212 378 14 25 66 117 115 206 l90 161 141 110 c174 134 664 490 715
519 20 11 66 31 101 43 64 22 145 43 256 65 116 24 250 62 326 94 103 42 205
76 259 86 19 3 46 8 60 11 14 3 43 8 65 11 22 3 81 13 130 23 114 22 228 23
336 5z"/>
<path d="M2784 6355 c-43 -18 -65 -48 -80 -107 -38 -156 -58 -198 -90 -198 -8
0 -38 35 -69 79 -55 79 -81 103 -122 113 -33 9 -83 -29 -111 -84 -20 -39 -24
-60 -23 -132 1 -93 -10 -136 -34 -136 -9 0 -60 21 -113 46 -70 34 -110 47
-145 48 -44 1 -52 -3 -82 -36 -55 -60 -65 -145 -24 -195 19 -22 79 -50 126
-58 51 -8 78 -35 69 -69 -9 -36 -47 -43 -126 -23 -153 40 -205 4 -196 -132 5
-69 23 -92 129 -166 47 -33 114 -81 148 -107 58 -46 88 -56 123 -42 9 3 16 14
16 24 0 11 4 21 9 25 5 3 17 29 27 58 22 69 137 183 232 231 37 18 91 46 121
61 53 28 55 29 223 27 93 0 183 -4 201 -8 30 -6 93 -37 111 -55 6 -5 21 -9 35
-9 35 0 75 -26 144 -94 39 -38 65 -56 83 -56 29 0 98 66 167 159 23 31 44 58
47 61 6 5 60 87 105 159 46 75 122 234 139 292 40 136 22 200 -68 244 -33 16
-72 27 -95 27 -52 -1 -114 -34 -148 -79 -72 -96 -122 -124 -155 -85 -8 9 -23
50 -34 90 -28 113 -67 132 -159 77 -22 -13 -51 -35 -64 -49 -13 -14 -39 -30
-58 -37 -49 -16 -80 1 -130 70 -47 67 -83 86 -129 66z"/>
<path d="M2554 5485 c-79 -45 -179 -137 -222 -205 -19 -30 -50 -74 -69 -97
-70 -87 -92 -194 -88 -431 3 -207 8 -225 102 -323 109 -114 178 -163 260 -185
37 -10 103 -32 145 -50 89 -36 119 -36 231 0 40 12 100 31 135 41 55 16 72 28
142 97 114 114 193 202 207 229 7 13 31 76 55 139 37 99 43 126 43 190 -1 60
-6 85 -26 125 -15 28 -36 82 -47 121 -21 69 -25 74 -115 154 -152 134 -339
221 -476 219 -36 0 -100 2 -142 5 -71 4 -79 3 -135 -29z m316 -167 c25 -14 68
-34 97 -44 29 -9 63 -28 76 -40 33 -30 94 -131 102 -169 4 -16 20 -69 36 -116
16 -48 29 -96 29 -109 0 -32 -86 -286 -109 -324 -93 -149 -314 -209 -457 -122
-77 46 -195 283 -210 421 -8 69 43 217 102 302 56 79 164 188 212 212 45 23
66 21 122 -11z"/>
<path d="M2925 5149 c-29 -14 -44 -42 -51 -93 -6 -38 -3 -47 23 -76 41 -45 85
-46 125 -2 73 83 -3 217 -97 171z"/>
<path d="M3801 5146 c-28 -16 -50 -52 -51 -85 0 -13 16 -46 36 -74 33 -46 36
-54 29 -96 -4 -25 -11 -68 -14 -96 -4 -27 -19 -72 -33 -100 -14 -27 -42 -91
-61 -142 -20 -50 -43 -105 -52 -123 -9 -18 -36 -89 -60 -158 -25 -69 -53 -134
-63 -145 -16 -16 -33 -19 -98 -18 -44 0 -84 -3 -90 -7 -32 -21 -48 -108 -25
-136 9 -11 30 -16 62 -16 38 0 65 -9 122 -39 61 -34 84 -40 157 -46 56 -5 102
-15 135 -30 61 -29 240 -88 316 -105 49 -11 59 -10 90 5 48 25 259 241 259
265 0 23 -33 60 -54 60 -7 0 -19 -7 -26 -15 -7 -8 -20 -15 -29 -15 -9 0 -41
-9 -71 -19 -30 -11 -71 -22 -90 -25 -19 -3 -48 -8 -63 -11 -65 -13 -117 -7
-210 24 -103 34 -117 46 -117 103 0 55 108 366 154 443 48 80 63 111 101 213
15 39 36 79 48 87 26 18 68 19 122 3 45 -13 61 -12 123 4 33 8 43 16 48 37 3
14 7 31 9 37 2 6 -7 23 -18 38 -18 23 -67 42 -277 112 -140 46 -262 84 -270
84 -8 -1 -26 -7 -39 -14z"/>
<path d="M4870 4732 c-26 -10 -46 -25 -48 -35 -5 -27 23 -64 54 -71 15 -4 41
-17 57 -28 26 -18 54 -25 110 -27 10 -1 32 -14 47 -30 26 -26 29 -34 25 -75
-6 -57 -76 -270 -105 -318 -28 -49 -61 -146 -65 -193 -3 -38 -40 -161 -65
-215 -6 -14 -22 -33 -36 -43 -22 -17 -26 -17 -56 -1 -18 9 -40 22 -48 29 -8 7
-42 15 -75 18 -33 3 -71 10 -85 15 -25 9 -34 9 -96 -3 -70 -13 -82 -81 -20
-111 17 -9 48 -34 68 -56 33 -36 41 -39 75 -35 38 6 111 -21 134 -49 7 -8 30
-14 58 -14 29 0 101 -18 194 -49 80 -27 166 -51 189 -52 24 -2 61 -9 82 -16
22 -7 76 -15 121 -17 45 -2 99 -9 120 -16 50 -16 129 -8 190 21 49 23 153 119
213 197 19 24 45 78 59 120 13 42 37 100 52 127 66 119 72 276 15 417 -33 80
-68 133 -132 195 -101 101 -210 158 -367 193 -55 12 -124 30 -154 41 -30 11
-78 21 -108 23 -31 2 -60 10 -71 19 -57 52 -245 74 -332 39z m663 -359 c45
-20 99 -52 120 -70 20 -18 43 -33 51 -33 29 0 76 -146 81 -251 6 -141 -32
-236 -141 -345 -74 -75 -134 -107 -228 -119 -49 -7 -268 36 -294 58 -23 18
-10 130 25 227 58 158 160 485 156 498 -6 23 10 36 67 55 63 22 71 21 163 -20z"/>
<path d="M1809 4325 c-24 -13 -65 -63 -57 -70 2 -2 31 -19 65 -39 34 -20 66
-44 71 -53 12 -21 -29 -142 -65 -195 -14 -20 -27 -54 -29 -75 -9 -75 -14 -92
-43 -140 -36 -60 -69 -157 -81 -246 -6 -37 -22 -104 -37 -149 -25 -73 -31 -83
-62 -95 -21 -9 -51 -13 -77 -9 -48 5 -64 -7 -83 -63 -13 -41 2 -72 47 -94 51
-26 157 -56 185 -53 18 2 45 -8 80 -30 93 -58 109 -66 145 -66 61 0 62 28 3
102 -55 68 -68 97 -53 120 7 11 12 37 12 58 0 25 9 52 24 75 13 19 35 68 47
107 27 82 56 120 94 120 43 0 268 -78 305 -105 19 -14 63 -34 98 -45 89 -28
102 -36 102 -69 0 -31 -77 -267 -103 -318 -19 -36 -38 -49 -116 -78 -29 -11
-60 -30 -68 -42 -14 -20 -13 -24 11 -48 20 -20 35 -25 73 -25 36 0 59 -7 87
-26 45 -31 282 -112 311 -107 35 7 65 26 65 42 0 9 -35 48 -77 87 -69 63 -77
75 -76 106 0 19 15 62 32 96 17 34 38 92 47 129 24 105 62 205 88 233 13 14
29 50 36 80 14 60 59 201 85 268 22 53 68 84 104 70 14 -5 45 -12 67 -15 39
-4 42 -3 52 24 23 67 -31 122 -170 172 -94 34 -169 73 -188 96 -20 24 -77 19
-105 -10 -34 -33 -31 -61 10 -106 28 -31 33 -43 26 -61 -5 -13 -12 -50 -15
-83 -4 -33 -21 -104 -38 -158 -38 -120 -55 -136 -126 -119 -26 6 -59 11 -74
10 -14 0 -40 9 -57 21 -17 12 -61 32 -98 45 -38 13 -84 30 -103 39 -19 8 -54
20 -76 26 -66 17 -94 79 -69 151 7 19 18 67 25 105 15 85 44 141 79 153 14 4
49 5 76 1 28 -3 58 -2 68 3 19 10 47 65 47 91 0 23 -104 63 -182 70 -30 3 -65
16 -95 35 -41 26 -176 73 -208 72 -5 -1 -22 -7 -36 -15z"/>
<path d="M3246 3837 c-14 -11 -19 -27 -19 -65 0 -58 10 -75 56 -92 56 -21 78
-34 87 -50 6 -11 -6 -60 -34 -145 -43 -130 -56 -163 -114 -285 -44 -96 -83
-217 -89 -280 -5 -57 -41 -147 -68 -170 -10 -8 -55 -13 -136 -15 -133 -2 -144
-7 -134 -60 8 -44 41 -73 94 -82 25 -4 49 -6 53 -5 3 1 46 -12 95 -29 48 -16
111 -32 138 -35 80 -10 276 -73 324 -105 66 -43 92 -39 159 25 31 29 76 63
100 75 47 24 56 56 25 86 -15 15 -32 17 -139 11 -113 -5 -129 -4 -201 20 -88
28 -123 55 -123 93 0 66 45 236 71 268 16 19 60 16 131 -8 46 -15 71 -31 102
-66 43 -48 78 -67 106 -58 18 6 38 46 68 137 18 55 18 57 0 93 -18 33 -22 36
-51 29 -18 -3 -41 -10 -52 -14 -10 -4 -42 -1 -70 6 -27 8 -63 14 -80 14 -38 1
-65 21 -71 53 -6 33 50 206 88 273 16 29 41 60 55 69 69 45 206 -33 327 -187
29 -37 44 -48 66 -48 36 0 43 21 34 92 -7 48 -7 97 -2 182 2 45 -58 96 -114
97 -82 1 -129 10 -196 39 -98 41 -169 65 -452 147 -8 2 -24 -2 -34 -10z"/>
<path d="M4254 3507 c-29 -26 -36 -40 -36 -70 0 -38 5 -47 116 -183 32 -40 33
-45 34 -132 1 -71 -2 -91 -13 -96 -10 -3 -14 -18 -13 -43 2 -50 -35 -160 -83
-249 -23 -42 -39 -84 -39 -105 0 -19 -5 -54 -11 -79 -6 -25 -12 -56 -14 -70
-3 -36 -26 -70 -52 -76 -12 -3 -51 3 -85 14 -67 22 -144 44 -167 48 -36 7 -57
-15 -74 -75 -9 -33 -17 -65 -17 -70 0 -13 35 -20 53 -10 19 11 85 -12 147 -50
25 -16 68 -36 97 -45 28 -9 61 -25 72 -35 12 -11 46 -22 79 -26 31 -4 124 -29
207 -56 87 -28 154 -44 159 -39 17 17 8 62 -18 89 -14 15 -64 48 -110 74 -90
50 -136 95 -136 132 0 13 9 45 21 72 11 26 29 89 39 138 25 116 96 325 119
349 37 37 75 1 91 -87 10 -50 50 -139 164 -357 34 -65 61 -133 72 -179 9 -41
29 -102 44 -135 57 -124 68 -153 84 -221 9 -39 21 -76 25 -83 11 -17 121 -61
137 -55 30 11 64 106 70 193 5 79 10 93 61 190 63 119 92 195 99 260 7 55 116
388 140 425 17 25 19 26 83 19 36 -4 98 -17 136 -29 110 -36 159 -17 170 63 7
56 -34 82 -228 148 -95 31 -206 73 -247 92 -98 45 -176 72 -210 72 -27 0 -59
-26 -64 -52 -2 -7 -6 -25 -11 -41 -10 -36 32 -92 84 -113 30 -12 43 -26 69
-80 l33 -66 -37 -106 c-20 -59 -49 -125 -64 -147 -16 -22 -40 -80 -55 -130
-38 -127 -36 -124 -62 -114 -28 10 -53 50 -133 209 -35 69 -72 137 -82 152
-18 26 -34 68 -117 308 -42 124 -67 173 -108 217 -17 18 -34 49 -38 70 -3 21
-18 55 -32 75 -23 34 -37 41 -162 83 -75 25 -139 45 -144 45 -4 0 -23 -15 -43
-33z"/>
<path d="M1443 2865 c-46 -14 -128 -59 -153 -84 -14 -14 -45 -57 -113 -160
-61 -91 -69 -328 -15 -431 18 -35 50 -65 95 -90 21 -12 49 -27 63 -35 92 -51
181 -85 241 -91 63 -6 66 -5 87 21 12 15 22 35 22 44 0 9 7 30 16 46 9 17 25
54 36 82 23 62 48 83 99 83 70 0 78 61 11 80 -20 5 -43 10 -49 10 -7 0 -56 14
-109 31 -53 17 -102 28 -109 25 -10 -3 -7 -16 11 -52 28 -55 32 -130 9 -173
-18 -35 -32 -41 -100 -41 -46 0 -60 5 -88 30 -49 42 -79 119 -85 212 -4 73 -3
80 34 153 50 100 89 144 158 179 44 22 70 28 125 29 65 1 73 -1 123 -36 75
-51 100 -82 132 -159 16 -38 31 -68 35 -68 22 1 42 56 47 133 8 101 -5 151
-44 171 -46 23 -221 76 -253 76 -17 0 -38 4 -47 9 -30 16 -135 20 -179 6z"/>
<path d="M2465 2616 c-16 -8 -36 -22 -43 -32 -76 -113 -126 -184 -170 -240
-59 -76 -305 -333 -336 -351 -12 -7 -45 -12 -73 -13 -39 0 -58 -5 -73 -20 -11
-11 -20 -24 -20 -28 0 -20 77 -64 119 -67 52 -5 111 -20 145 -36 89 -43 132
-3 81 75 -20 30 -13 45 43 102 17 16 34 42 37 56 11 42 65 44 156 5 l37 -15
-2 -105 c-1 -115 -10 -137 -56 -137 -43 0 -91 -20 -88 -37 2 -9 59 -33 153
-65 204 -68 216 -70 237 -51 36 32 20 60 -56 98 -21 11 -42 29 -46 40 -10 26
-3 155 11 225 7 30 13 96 15 145 1 50 7 104 12 120 5 17 8 39 6 50 -7 42 -5
72 10 125 22 76 20 115 -6 140 -12 11 -25 20 -29 20 -4 0 -13 2 -21 5 -7 2
-26 -2 -43 -9z m-46 -317 c-8 -24 -14 -60 -14 -79 0 -30 -4 -35 -26 -38 -14
-2 -35 5 -47 15 l-22 18 31 61 c46 93 103 109 78 23z"/>
<path d="M3076 2383 c-13 -13 -5 -40 24 -82 27 -40 30 -51 26 -105 -4 -56 -42
-150 -77 -192 -5 -6 -18 -37 -29 -69 -11 -32 -24 -63 -29 -69 -5 -6 -17 -31
-27 -56 -20 -53 -86 -150 -111 -166 -14 -8 -37 -7 -93 4 -80 15 -130 7 -130
-22 0 -20 47 -48 88 -52 20 -1 82 -26 138 -54 105 -53 150 -65 172 -48 20 17
14 40 -22 73 -32 29 -34 34 -26 68 4 20 23 64 42 99 19 35 43 88 53 118 16 51
55 116 79 132 23 15 33 -32 22 -100 -7 -37 -11 -118 -9 -180 1 -62 -1 -123 -6
-135 -10 -28 0 -67 20 -80 11 -7 23 -3 43 14 36 30 76 69 97 95 8 10 35 35 59
54 25 19 63 51 85 71 63 56 111 89 118 82 13 -13 7 -57 -22 -147 -16 -50 -31
-109 -33 -131 -3 -22 -11 -50 -18 -61 -14 -23 -8 -23 -117 6 -29 7 -36 4 -58
-21 -31 -38 -23 -56 29 -69 22 -5 88 -26 146 -46 119 -41 237 -74 263 -74 10
0 22 10 26 23 11 27 -3 45 -70 87 -47 31 -64 53 -53 71 3 5 8 41 10 79 2 38
11 85 19 104 8 19 15 51 15 71 0 48 78 279 103 306 18 19 27 21 91 15 90 -8
116 6 116 64 0 50 -27 70 -101 74 -33 2 -68 12 -89 25 -19 11 -45 21 -57 21
-22 0 -67 -45 -77 -78 -3 -10 -19 -25 -35 -35 -16 -9 -44 -36 -63 -60 -33 -42
-68 -83 -121 -141 -16 -17 -45 -51 -65 -76 -42 -53 -70 -80 -85 -80 -6 0 -7
73 -2 228 13 353 12 368 -15 390 -24 20 -117 48 -126 39 -3 -3 -21 -1 -41 5
-54 15 -71 17 -77 11z"/>
<path d="M4147 2003 c-13 -12 -7 -72 8 -87 8 -8 25 -18 37 -22 49 -15 52 -29
27 -107 -12 -40 -42 -115 -65 -168 -49 -114 -72 -182 -76 -229 -2 -19 -12 -53
-24 -75 l-21 -40 -89 -5 c-81 -5 -89 -7 -92 -26 -5 -36 28 -63 93 -75 33 -6
75 -17 94 -25 18 -8 45 -14 59 -14 38 0 193 -49 224 -71 38 -28 61 -24 111 19
24 20 56 46 71 57 24 18 26 22 14 38 -12 16 -28 19 -103 18 -104 -1 -178 19
-201 54 -13 20 -14 33 -4 80 15 73 37 125 53 126 50 5 108 -18 142 -56 54 -61
83 -50 111 39 24 77 14 91 -73 92 -145 3 -156 15 -116 139 27 86 63 135 102
141 32 5 105 -42 160 -103 40 -45 64 -64 77 -61 17 3 19 13 17 103 -2 91 -4
102 -26 121 -16 14 -40 21 -77 23 -29 1 -80 14 -114 28 -66 27 -276 93 -299
93 -7 0 -17 -3 -20 -7z"/>
<path d="M5051 1738 c-117 -28 -147 -56 -181 -166 -12 -39 -11 -46 10 -95 14
-28 38 -66 55 -83 169 -176 209 -231 194 -271 -5 -13 -9 -39 -9 -57 0 -45 -30
-79 -94 -111 -90 -44 -190 -29 -238 35 -28 38 -29 49 -12 107 17 57 11 79 -26
98 -86 44 -182 -17 -171 -110 3 -26 7 -59 10 -90 2 -19 86 -103 121 -120 19
-10 42 -23 50 -29 45 -36 237 -51 318 -26 100 31 121 43 167 97 40 46 51 68
66 132 33 138 21 185 -77 293 -31 34 -74 82 -95 105 -20 23 -56 53 -79 68 -49
31 -58 49 -35 75 40 45 117 33 154 -23 18 -28 31 -37 52 -37 63 0 113 88 83
146 -19 35 -39 50 -90 64 -63 18 -95 18 -173 -2z"/>
</g>
</svg>
